{"title":"Peter Gabriel Live In Athens 1987 Remastered 2012 DVDRip XviD AC","uid":7778795,"size":2322442074,"categoryP":"video","categoryS":"music_videos","magnet":"?xt=urn:btih:68906c89143c945fbc2d43dc66f84ae82aba9b5a&amp;dn=Peter+Gabriel+Live+In+Athens+1987+Remastered+2012+DVDRip+XviD+AC&amp;tr=udp%3A%2F%2Ftracker.openbittorrent.com%3A80&amp;tr=udp%3A%2F%2Fopen.demonii.com%3A1337&amp;tr=udp%3A%2F%2Ftracker.coppersurfer.tk%3A6969&amp;tr=udp%3A%2F%2Fexodus.desync.com%3A6969","seeders":2,"leechers":0,"uploader":"movieZ.freak","files":5,"time":1351720815,"description":"Source: DVD9 NTSC UNTOUCHED !!!\nOriginal audio from DVD: Dolby AC3, 448kbps, 48kHz, 3/2+LFE ch\nVideo: 29.970fps (original DVD fps)\nI didn't mess around with anything, simple XviD encoding, that's it.\nRunning time: 1h 56m 44s\n\n+ Unreleased tracks: MP3_320kbps\n-----------------------------------\n-Courage\n-Sagrada\n-Don't Give Up (Piano and Bvox Mix-Alternative version)\n\nInfo:\n------------\nDirected by Michael Chapman, Executive Producer Martin Scorsese. This previously unreleased Peter Gabriel concert live from Athens has been fully restored\nand pieced together from over 150 reels of original 35mm negatives and remixed in 5.1, this concert is made available for the first time on DVD.\n\n1. This Is The Picture (Excellent Birds) (5:57)\n2. San Jacinto (7:27)\n3. Shock The Monkey (6:44)\n4. Family Snapshot (4:36)\n5. Intruder (5:26)\n6. Games Without Frontiers (5:29)\n7. No Self Control (6:16)\n8. Mercy Street (9:15)\n9. The Family And The Fishing Net (7:09)\n10. Don't Give Up (8:17)\n11. Solsbury Hill (5:11)\n12. Lay Your Hands On Me (6:15)\n13. Sledgehammer (5:07)\n14. Here Comes The Flood (2:48)\n15. In Your Eyes (10:38)\n16. Biko (9:38)\n\n- Peter Gabriel / lead vocals, keyboards\n- Tony Levin / bass guitar, stick, vocals\n- David Rhodes / guitar, vocals\n- Manu Katche / drums, vocals\n- David Sancious / keyboards\n\n   General\n-----------\n      Format : AVI\n      Format/Info : Audio Video Interleave\n      Format profile : OpenDML\n      File size : 2.05 GiB\n      Duration : 1h 56mn\n      Overall bit rate : 2 518 Kbps\n      Writing application : VirtualDubMod 1.5.4.1 (build 2178/release)\n      Writing library : VirtualDubMod build 2178/release\n\n   Video\n----------\n      Format : MPEG-4 Visual\n      Format profile : Advanced Simple@L5\n      Format settings, BVOP : 1\n      Format settings, QPel : No\n      Format settings, GMC : No warppoints\n      Format settings, Matrix : Custom\n      Codec ID : XVID\n      Codec ID/Hint : XviD\n      Duration : 1h 56mn\n      Bit rate : 2 060 Kbps\n      Width : 720 pixels\n      Height : 400 pixels\n      Display aspect ratio : 16:9\n      Frame rate : 29.970 fps\n      Color space : YUV\n      Chroma subsampling : 4:2:0\n      Bit depth : 8 bits\n      Scan type : Progressive\n      Compression mode : Lossy\n      Bits/(Pixel*Frame) : 0.239\n      Stream size : 1.68 GiB (82%)\n      Writing library : XviD 64\n\n   Audio\n-----------\n      Format : AC-3\n      Format/Info : Audio Coding 3\n      Mode extension : CM (complete main)\n      Codec ID : 2000\n      Duration : 1h 56mn\n      Bit rate mode : Constant\n      Bit rate : 448 Kbps\n      Channel(s) : 6 channels\n      Channel positions : Front: L C R, Side: L R, LFE\n      Sampling rate : 48.0 KHz\n      Bit depth : 16 bits\n      Compression mode : Lossy\n      Stream size : 374 MiB (18%)\n      Alignment : Split accross interleaves\n      Interleave, duration : 96 ms (2.88 video frames)\n      Interleave, preload duration : 96 ms\n      Language : English","torrent":{"xt":"urn:btih:68906c89143c945fbc2d43dc66f84ae82aba9b5a","amp;dn":"Peter+Gabriel+Live+In+Athens+1987+Remastered+2012+DVDRip+XviD+AC","amp;tr":["udp%3A%2F%2Ftracker.openbittorrent.com%3A80","udp%3A%2F%2Fopen.demonii.com%3A1337","udp%3A%2F%2Ftracker.coppersurfer.tk%3A6969","udp%3A%2F%2Fexodus.desync.com%3A6969"],"infoHash":"68906c89143c945fbc2d43dc66f84ae82aba9b5a","infoHashBuffer":{"type":"Buffer","data":[104,144,108,137,20,60,148,95,188,45,67,220,102,248,74,232,42,186,155,90]},"announce":[],"urlList":[]}}